<?xml version="1.0" encoding="utf-8"?><svg viewBox="0 0 100 100" xmlns="http://www.w3.org/2000/svg" width="47px" height="47px" xmlns:xlink="http://www.w3.org/1999/xlink" style="width:100%;height:100%;background-size:initial;background-repeat-y:initial;background-repeat-x:initial;background-position-y:initial;background-position-x:initial;background-origin:initial;background-image:initial;background-color:rgb(241, 242, 243);background-clip:initial;background-attachment:initial;animation-play-state:paused" ><g class="ldl-scale" style="transform-origin:50% 50%;transform:rotate(0deg) scale(0.8, 0.8);animation-play-state:paused" ><path fill="#333" d="M24.015 86.058c0-6.076 2.112-11.658 5.619-16.088v16.088a3.503 3.503 0 0 0 3.503 3.503h33.727a3.503 3.503 0 0 0 3.503-3.503V69.97c3.507 4.43 5.619 10.013 5.619 16.088a3.503 3.503 0 0 0 3.503 3.503h7.008A3.503 3.503 0 0 0 90 86.058c0-19.29-13.726-35.434-31.923-39.18 7.096-3.316 11.833-10.84 10.939-19.375-.922-8.814-8.021-15.966-16.829-16.943-11.541-1.28-21.311 7.72-21.311 19.002 0 7.672 4.528 14.27 11.047 17.316C23.726 50.624 10 66.769 10 86.058a3.503 3.503 0 0 0 3.503 3.503h7.008a3.503 3.503 0 0 0 3.504-3.503z" style="fill:rgb(21, 33, 43);animation-play-state:paused" ></path>
<metadata xmlns:d="https://loading.io/stock/" style="animation-play-state:paused" ><d:name style="animation-play-state:paused" >avatar</d:name>


<d:tags style="animation-play-state:paused" >avatar,man,person,user,administrator,profile,people</d:tags>


<d:license style="animation-play-state:paused" >by</d:license>


<d:slug style="animation-play-state:paused" >81fuim</d:slug></metadata></g><!-- generated by https://loading.io/ --></svg>